# MagicaVoxel @ Ephtracy

# material
mtllib haikei2.mtl
usemtl palette

# normals
vn -1 0 0
vn 1 0 0
vn 0 0 1
vn 0 0 -1
vn 0 -1 0
vn 0 1 0

# texcoords
vt 0.00585938 0.5
vt 0.0605469 0.5
vt 0.376953 0.5
vt 0.837891 0.5

# verts
v -63 0 4
v -63 0 3
v -63 126 4
v -63 126 3
v 63 0 4
v 63 0 3
v 63 126 4
v 63 126 3
v -63 0 4
v -63 126 4
v -57 55 4
v -57 56 4
v -56 55 4
v -56 56 4
v -52 27 4
v -52 28 4
v -51 27 4
v -51 28 4
v -49 77 4
v -49 78 4
v -48 77 4
v -48 78 4
v -47 96 4
v -47 97 4
v -46 96 4
v -46 97 4
v -45 40 4
v -45 41 4
v -44 40 4
v -44 41 4
v -44 114 4
v -44 115 4
v -43 114 4
v -43 115 4
v -39 58 4
v -39 59 4
v -38 58 4
v -38 59 4
v -36 81 4
v -36 82 4
v -35 81 4
v -35 82 4
v -34 17 4
v -34 18 4
v -33 17 4
v -33 18 4
v -33 58 4
v -33 59 4
v -32 58 4
v -32 59 4
v -29 94 4
v -29 95 4
v -28 94 4
v -28 95 4
v -25 105 4
v -25 106 4
v -24 105 4
v -24 106 4
v -13 63 4
v -13 64 4
v -12 63 4
v -12 64 4
v -7 61 4
v -7 62 4
v -6 61 4
v -6 62 4
v -4 17 4
v -4 18 4
v -4 41 4
v -4 42 4
v -4 78 4
v -4 79 4
v -4 108 4
v -4 109 4
v -3 17 4
v -3 18 4
v -3 41 4
v -3 42 4
v -3 78 4
v -3 79 4
v -3 108 4
v -3 109 4
v 9 79 4
v 9 80 4
v 10 79 4
v 10 80 4
v 11 61 4
v 11 62 4
v 12 61 4
v 12 62 4
v 16 40 4
v 16 41 4
v 17 40 4
v 17 41 4
v 19 100 4
v 19 101 4
v 20 100 4
v 20 101 4
v 21 55 4
v 21 56 4
v 22 55 4
v 22 56 4
v 30 85 4
v 30 86 4
v 31 85 4
v 31 86 4
v 33 64 4
v 33 65 4
v 34 64 4
v 34 65 4
v 38 29 4
v 38 30 4
v 39 29 4
v 39 30 4
v 44 66 4
v 44 67 4
v 45 54 4
v 45 55 4
v 45 66 4
v 45 67 4
v 46 54 4
v 46 55 4
v 48 99 4
v 48 100 4
v 49 99 4
v 49 100 4
v 54 19 4
v 54 20 4
v 57 19 4
v 57 20 4
v 63 0 4
v 63 126 4
v -63 0 3
v -63 126 3
v -57 55 3
v -57 56 3
v -56 55 3
v -56 56 3
v -52 27 3
v -52 28 3
v -51 27 3
v -51 28 3
v -49 77 3
v -49 78 3
v -48 77 3
v -48 78 3
v -47 96 3
v -47 97 3
v -46 96 3
v -46 97 3
v -45 40 3
v -45 41 3
v -44 40 3
v -44 41 3
v -44 114 3
v -44 115 3
v -43 114 3
v -43 115 3
v -39 58 3
v -39 59 3
v -38 58 3
v -38 59 3
v -36 81 3
v -36 82 3
v -35 81 3
v -35 82 3
v -34 17 3
v -34 18 3
v -33 17 3
v -33 18 3
v -33 58 3
v -33 59 3
v -32 58 3
v -32 59 3
v -29 94 3
v -29 95 3
v -28 94 3
v -28 95 3
v -25 105 3
v -25 106 3
v -24 105 3
v -24 106 3
v -13 63 3
v -13 64 3
v -12 63 3
v -12 64 3
v -7 61 3
v -7 62 3
v -6 61 3
v -6 62 3
v -4 17 3
v -4 18 3
v -4 41 3
v -4 42 3
v -4 78 3
v -4 79 3
v -4 108 3
v -4 109 3
v -3 17 3
v -3 18 3
v -3 41 3
v -3 42 3
v -3 78 3
v -3 79 3
v -3 108 3
v -3 109 3
v 9 79 3
v 9 80 3
v 10 79 3
v 10 80 3
v 11 61 3
v 11 62 3
v 12 61 3
v 12 62 3
v 16 40 3
v 16 41 3
v 17 40 3
v 17 41 3
v 19 100 3
v 19 101 3
v 20 100 3
v 20 101 3
v 21 55 3
v 21 56 3
v 22 55 3
v 22 56 3
v 30 85 3
v 30 86 3
v 31 85 3
v 31 86 3
v 33 64 3
v 33 65 3
v 34 64 3
v 34 65 3
v 38 29 3
v 38 30 3
v 39 29 3
v 39 30 3
v 44 66 3
v 44 67 3
v 45 54 3
v 45 55 3
v 45 66 3
v 45 67 3
v 46 54 3
v 46 55 3
v 48 99 3
v 48 100 3
v 49 99 3
v 49 100 3
v 54 19 3
v 54 20 3
v 57 19 3
v 57 20 3
v 63 0 3
v 63 126 3
v -63 0 4
v 63 0 4
v -63 0 3
v 63 0 3
v -63 126 4
v 63 126 4
v -63 126 3
v 63 126 3

# faces
f 3/4/1 2/4/1 1/4/1
f 4/4/1 2/4/1 3/4/1
f 5/4/2 6/4/2 7/4/2
f 7/4/2 6/4/2 8/4/2
f 11/4/3 10/4/3 9/4/3
f 12/4/3 10/4/3 11/4/3
f 13/4/3 11/4/3 9/4/3
f 13/1/3 12/1/3 11/1/3
f 14/4/3 10/4/3 12/4/3
f 14/1/3 12/1/3 13/1/3
f 15/4/3 13/4/3 9/4/3
f 15/4/3 14/4/3 13/4/3
f 16/4/3 14/4/3 15/4/3
f 17/4/3 15/4/3 9/4/3
f 17/2/3 16/2/3 15/2/3
f 18/4/3 14/4/3 16/4/3
f 18/2/3 16/2/3 17/2/3
f 19/4/3 10/4/3 14/4/3
f 19/4/3 14/4/3 18/4/3
f 19/4/3 18/4/3 17/4/3
f 20/4/3 10/4/3 19/4/3
f 21/4/3 19/4/3 17/4/3
f 21/1/3 20/1/3 19/1/3
f 22/4/3 10/4/3 20/4/3
f 22/1/3 20/1/3 21/1/3
f 23/4/3 22/4/3 21/4/3
f 23/4/3 10/4/3 22/4/3
f 24/4/3 10/4/3 23/4/3
f 25/4/3 23/4/3 21/4/3
f 25/1/3 24/1/3 23/1/3
f 26/4/3 10/4/3 24/4/3
f 26/1/3 24/1/3 25/1/3
f 27/4/3 21/4/3 17/4/3
f 27/4/3 25/4/3 21/4/3
f 27/4/3 26/4/3 25/4/3
f 28/4/3 26/4/3 27/4/3
f 29/4/3 27/4/3 17/4/3
f 29/1/3 28/1/3 27/1/3
f 30/4/3 26/4/3 28/4/3
f 30/1/3 28/1/3 29/1/3
f 31/4/3 10/4/3 26/4/3
f 31/4/3 26/4/3 30/4/3
f 32/4/3 10/4/3 31/4/3
f 33/4/3 30/4/3 29/4/3
f 33/4/3 31/4/3 30/4/3
f 33/3/3 32/3/3 31/3/3
f 34/4/3 10/4/3 32/4/3
f 34/3/3 32/3/3 33/3/3
f 35/4/3 33/4/3 29/4/3
f 35/4/3 34/4/3 33/4/3
f 36/4/3 34/4/3 35/4/3
f 37/4/3 35/4/3 29/4/3
f 37/1/3 36/1/3 35/1/3
f 38/4/3 34/4/3 36/4/3
f 38/1/3 36/1/3 37/1/3
f 39/4/3 38/4/3 37/4/3
f 39/4/3 34/4/3 38/4/3
f 40/4/3 34/4/3 39/4/3
f 41/4/3 39/4/3 37/4/3
f 41/1/3 40/1/3 39/1/3
f 42/4/3 34/4/3 40/4/3
f 42/1/3 40/1/3 41/1/3
f 43/4/3 17/4/3 9/4/3
f 43/4/3 29/4/3 17/4/3
f 43/4/3 42/4/3 41/4/3
f 43/4/3 41/4/3 37/4/3
f 43/4/3 37/4/3 29/4/3
f 44/4/3 42/4/3 43/4/3
f 45/4/3 43/4/3 9/4/3
f 45/3/3 44/3/3 43/3/3
f 46/4/3 42/4/3 44/4/3
f 46/3/3 44/3/3 45/3/3
f 47/4/3 42/4/3 46/4/3
f 48/4/3 42/4/3 47/4/3
f 49/4/3 46/4/3 45/4/3
f 49/4/3 47/4/3 46/4/3
f 49/1/3 48/1/3 47/1/3
f 50/4/3 42/4/3 48/4/3
f 50/1/3 48/1/3 49/1/3
f 51/4/3 34/4/3 42/4/3
f 51/4/3 42/4/3 50/4/3
f 51/4/3 50/4/3 49/4/3
f 52/4/3 34/4/3 51/4/3
f 53/4/3 51/4/3 49/4/3
f 53/1/3 52/1/3 51/1/3
f 54/4/3 34/4/3 52/4/3
f 54/1/3 52/1/3 53/1/3
f 55/4/3 54/4/3 53/4/3
f 55/4/3 34/4/3 54/4/3
f 56/4/3 34/4/3 55/4/3
f 57/4/3 55/4/3 53/4/3
f 57/2/3 56/2/3 55/2/3
f 58/4/3 34/4/3 56/4/3
f 58/2/3 56/2/3 57/2/3
f 59/4/3 53/4/3 49/4/3
f 59/4/3 57/4/3 53/4/3
f 59/4/3 58/4/3 57/4/3
f 60/4/3 58/4/3 59/4/3
f 61/4/3 59/4/3 49/4/3
f 61/1/3 60/1/3 59/1/3
f 62/4/3 58/4/3 60/4/3
f 62/1/3 60/1/3 61/1/3
f 63/4/3 61/4/3 49/4/3
f 63/4/3 62/4/3 61/4/3
f 64/4/3 62/4/3 63/4/3
f 65/4/3 63/4/3 49/4/3
f 65/2/3 64/2/3 63/2/3
f 66/4/3 62/4/3 64/4/3
f 66/2/3 64/2/3 65/2/3
f 67/4/3 49/4/3 45/4/3
f 67/4/3 45/4/3 9/4/3
f 67/4/3 66/4/3 65/4/3
f 67/4/3 65/4/3 49/4/3
f 68/4/3 66/4/3 67/4/3
f 69/4/3 66/4/3 68/4/3
f 70/4/3 66/4/3 69/4/3
f 71/4/3 62/4/3 66/4/3
f 71/4/3 66/4/3 70/4/3
f 71/4/3 58/4/3 62/4/3
f 72/4/3 58/4/3 71/4/3
f 73/4/3 34/4/3 58/4/3
f 73/4/3 58/4/3 72/4/3
f 74/4/3 34/4/3 73/4/3
f 75/4/3 67/4/3 9/4/3
f 75/1/3 68/1/3 67/1/3
f 76/4/3 69/4/3 68/4/3
f 76/1/3 68/1/3 75/1/3
f 77/1/3 70/1/3 69/1/3
f 77/4/3 69/4/3 76/4/3
f 78/4/3 71/4/3 70/4/3
f 78/1/3 70/1/3 77/1/3
f 79/1/3 72/1/3 71/1/3
f 79/4/3 71/4/3 78/4/3
f 80/4/3 73/4/3 72/4/3
f 80/1/3 72/1/3 79/1/3
f 81/1/3 74/1/3 73/1/3
f 81/4/3 73/4/3 80/4/3
f 82/4/3 34/4/3 74/4/3
f 82/1/3 74/1/3 81/1/3
f 83/4/3 76/4/3 75/4/3
f 83/4/3 78/4/3 77/4/3
f 83/4/3 82/4/3 81/4/3
f 83/4/3 79/4/3 78/4/3
f 83/4/3 77/4/3 76/4/3
f 83/4/3 80/4/3 79/4/3
f 83/4/3 81/4/3 80/4/3
f 84/4/3 82/4/3 83/4/3
f 85/4/3 83/4/3 75/4/3
f 85/1/3 84/1/3 83/1/3
f 86/4/3 82/4/3 84/4/3
f 86/1/3 84/1/3 85/1/3
f 87/4/3 85/4/3 75/4/3
f 87/4/3 86/4/3 85/4/3
f 88/4/3 86/4/3 87/4/3
f 89/4/3 87/4/3 75/4/3
f 89/3/3 88/3/3 87/3/3
f 90/4/3 86/4/3 88/4/3
f 90/3/3 88/3/3 89/3/3
f 91/4/3 89/4/3 75/4/3
f 91/4/3 90/4/3 89/4/3
f 92/4/3 90/4/3 91/4/3
f 93/4/3 91/4/3 75/4/3
f 93/1/3 92/1/3 91/1/3
f 94/4/3 90/4/3 92/4/3
f 94/1/3 92/1/3 93/1/3
f 95/4/3 82/4/3 86/4/3
f 95/4/3 90/4/3 94/4/3
f 95/4/3 94/4/3 93/4/3
f 95/4/3 86/4/3 90/4/3
f 96/4/3 82/4/3 95/4/3
f 97/4/3 95/4/3 93/4/3
f 97/3/3 96/3/3 95/3/3
f 98/4/3 82/4/3 96/4/3
f 98/3/3 96/3/3 97/3/3
f 99/4/3 97/4/3 93/4/3
f 99/4/3 98/4/3 97/4/3
f 100/4/3 98/4/3 99/4/3
f 101/4/3 99/4/3 93/4/3
f 101/1/3 100/1/3 99/1/3
f 102/4/3 98/4/3 100/4/3
f 102/1/3 100/1/3 101/1/3
f 103/4/3 102/4/3 101/4/3
f 103/4/3 98/4/3 102/4/3
f 104/4/3 98/4/3 103/4/3
f 105/4/3 103/4/3 101/4/3
f 105/1/3 104/1/3 103/1/3
f 106/4/3 98/4/3 104/4/3
f 106/1/3 104/1/3 105/1/3
f 107/4/3 105/4/3 101/4/3
f 107/4/3 106/4/3 105/4/3
f 108/4/3 106/4/3 107/4/3
f 109/4/3 107/4/3 101/4/3
f 109/1/3 108/1/3 107/1/3
f 110/4/3 106/4/3 108/4/3
f 110/1/3 108/1/3 109/1/3
f 111/4/3 93/4/3 75/4/3
f 111/4/3 101/4/3 93/4/3
f 111/4/3 110/4/3 109/4/3
f 111/4/3 109/4/3 101/4/3
f 112/4/3 110/4/3 111/4/3
f 113/4/3 111/4/3 75/4/3
f 113/2/3 112/2/3 111/2/3
f 114/4/3 110/4/3 112/4/3
f 114/2/3 112/2/3 113/2/3
f 115/4/3 106/4/3 110/4/3
f 115/4/3 110/4/3 114/4/3
f 115/4/3 114/4/3 113/4/3
f 116/4/3 106/4/3 115/4/3
f 117/4/3 115/4/3 113/4/3
f 118/4/3 115/4/3 117/4/3
f 119/2/3 116/2/3 115/2/3
f 119/4/3 115/4/3 118/4/3
f 120/4/3 106/4/3 116/4/3
f 120/2/3 116/2/3 119/2/3
f 121/1/3 118/1/3 117/1/3
f 121/4/3 117/4/3 113/4/3
f 122/4/3 119/4/3 118/4/3
f 122/1/3 118/1/3 121/1/3
f 122/4/3 120/4/3 119/4/3
f 123/4/3 98/4/3 106/4/3
f 123/4/3 120/4/3 122/4/3
f 123/4/3 122/4/3 121/4/3
f 123/4/3 106/4/3 120/4/3
f 124/4/3 98/4/3 123/4/3
f 125/4/3 123/4/3 121/4/3
f 125/1/3 124/1/3 123/1/3
f 126/4/3 98/4/3 124/4/3
f 126/1/3 124/1/3 125/1/3
f 127/4/3 113/4/3 75/4/3
f 127/4/3 121/4/3 113/4/3
f 127/4/3 126/4/3 125/4/3
f 127/4/3 125/4/3 121/4/3
f 128/4/3 126/4/3 127/4/3
f 129/4/3 127/4/3 75/4/3
f 129/1/3 128/1/3 127/1/3
f 130/4/3 126/4/3 128/4/3
f 130/1/3 128/1/3 129/1/3
f 131/4/3 75/4/3 9/4/3
f 131/4/3 129/4/3 75/4/3
f 131/4/3 130/4/3 129/4/3
f 132/4/3 34/4/3 82/4/3
f 132/4/3 130/4/3 131/4/3
f 132/4/3 10/4/3 34/4/3
f 132/4/3 82/4/3 98/4/3
f 132/4/3 98/4/3 126/4/3
f 132/4/3 126/4/3 130/4/3
f 133/4/4 134/4/4 135/4/4
f 135/4/4 134/4/4 136/4/4
f 133/4/4 135/4/4 137/4/4
f 135/1/4 136/1/4 137/1/4
f 136/4/4 134/4/4 138/4/4
f 137/1/4 136/1/4 138/1/4
f 133/4/4 137/4/4 139/4/4
f 137/4/4 138/4/4 139/4/4
f 139/4/4 138/4/4 140/4/4
f 133/4/4 139/4/4 141/4/4
f 139/2/4 140/2/4 141/2/4
f 140/4/4 138/4/4 142/4/4
f 141/2/4 140/2/4 142/2/4
f 138/4/4 134/4/4 143/4/4
f 142/4/4 138/4/4 143/4/4
f 141/4/4 142/4/4 143/4/4
f 143/4/4 134/4/4 144/4/4
f 141/4/4 143/4/4 145/4/4
f 143/1/4 144/1/4 145/1/4
f 144/4/4 134/4/4 146/4/4
f 145/1/4 144/1/4 146/1/4
f 145/4/4 146/4/4 147/4/4
f 146/4/4 134/4/4 147/4/4
f 147/4/4 134/4/4 148/4/4
f 145/4/4 147/4/4 149/4/4
f 147/1/4 148/1/4 149/1/4
f 148/4/4 134/4/4 150/4/4
f 149/1/4 148/1/4 150/1/4
f 141/4/4 145/4/4 151/4/4
f 145/4/4 149/4/4 151/4/4
f 149/4/4 150/4/4 151/4/4
f 151/4/4 150/4/4 152/4/4
f 141/4/4 151/4/4 153/4/4
f 151/1/4 152/1/4 153/1/4
f 152/4/4 150/4/4 154/4/4
f 153/1/4 152/1/4 154/1/4
f 150/4/4 134/4/4 155/4/4
f 154/4/4 150/4/4 155/4/4
f 155/4/4 134/4/4 156/4/4
f 153/4/4 154/4/4 157/4/4
f 154/4/4 155/4/4 157/4/4
f 155/3/4 156/3/4 157/3/4
f 156/4/4 134/4/4 158/4/4
f 157/3/4 156/3/4 158/3/4
f 153/4/4 157/4/4 159/4/4
f 157/4/4 158/4/4 159/4/4
f 159/4/4 158/4/4 160/4/4
f 153/4/4 159/4/4 161/4/4
f 159/1/4 160/1/4 161/1/4
f 160/4/4 158/4/4 162/4/4
f 161/1/4 160/1/4 162/1/4
f 161/4/4 162/4/4 163/4/4
f 162/4/4 158/4/4 163/4/4
f 163/4/4 158/4/4 164/4/4
f 161/4/4 163/4/4 165/4/4
f 163/1/4 164/1/4 165/1/4
f 164/4/4 158/4/4 166/4/4
f 165/1/4 164/1/4 166/1/4
f 133/4/4 141/4/4 167/4/4
f 141/4/4 153/4/4 167/4/4
f 165/4/4 166/4/4 167/4/4
f 161/4/4 165/4/4 167/4/4
f 153/4/4 161/4/4 167/4/4
f 167/4/4 166/4/4 168/4/4
f 133/4/4 167/4/4 169/4/4
f 167/3/4 168/3/4 169/3/4
f 168/4/4 166/4/4 170/4/4
f 169/3/4 168/3/4 170/3/4
f 170/4/4 166/4/4 171/4/4
f 171/4/4 166/4/4 172/4/4
f 169/4/4 170/4/4 173/4/4
f 170/4/4 171/4/4 173/4/4
f 171/1/4 172/1/4 173/1/4
f 172/4/4 166/4/4 174/4/4
f 173/1/4 172/1/4 174/1/4
f 166/4/4 158/4/4 175/4/4
f 174/4/4 166/4/4 175/4/4
f 173/4/4 174/4/4 175/4/4
f 175/4/4 158/4/4 176/4/4
f 173/4/4 175/4/4 177/4/4
f 175/1/4 176/1/4 177/1/4
f 176/4/4 158/4/4 178/4/4
f 177/1/4 176/1/4 178/1/4
f 177/4/4 178/4/4 179/4/4
f 178/4/4 158/4/4 179/4/4
f 179/4/4 158/4/4 180/4/4
f 177/4/4 179/4/4 181/4/4
f 179/2/4 180/2/4 181/2/4
f 180/4/4 158/4/4 182/4/4
f 181/2/4 180/2/4 182/2/4
f 173/4/4 177/4/4 183/4/4
f 177/4/4 181/4/4 183/4/4
f 181/4/4 182/4/4 183/4/4
f 183/4/4 182/4/4 184/4/4
f 173/4/4 183/4/4 185/4/4
f 183/1/4 184/1/4 185/1/4
f 184/4/4 182/4/4 186/4/4
f 185/1/4 184/1/4 186/1/4
f 173/4/4 185/4/4 187/4/4
f 185/4/4 186/4/4 187/4/4
f 187/4/4 186/4/4 188/4/4
f 173/4/4 187/4/4 189/4/4
f 187/2/4 188/2/4 189/2/4
f 188/4/4 186/4/4 190/4/4
f 189/2/4 188/2/4 190/2/4
f 169/4/4 173/4/4 191/4/4
f 133/4/4 169/4/4 191/4/4
f 189/4/4 190/4/4 191/4/4
f 173/4/4 189/4/4 191/4/4
f 191/4/4 190/4/4 192/4/4
f 192/4/4 190/4/4 193/4/4
f 193/4/4 190/4/4 194/4/4
f 190/4/4 186/4/4 195/4/4
f 194/4/4 190/4/4 195/4/4
f 186/4/4 182/4/4 195/4/4
f 195/4/4 182/4/4 196/4/4
f 182/4/4 158/4/4 197/4/4
f 196/4/4 182/4/4 197/4/4
f 197/4/4 158/4/4 198/4/4
f 133/4/4 191/4/4 199/4/4
f 191/1/4 192/1/4 199/1/4
f 192/4/4 193/4/4 200/4/4
f 199/1/4 192/1/4 200/1/4
f 193/1/4 194/1/4 201/1/4
f 200/4/4 193/4/4 201/4/4
f 194/4/4 195/4/4 202/4/4
f 201/1/4 194/1/4 202/1/4
f 195/1/4 196/1/4 203/1/4
f 202/4/4 195/4/4 203/4/4
f 196/4/4 197/4/4 204/4/4
f 203/1/4 196/1/4 204/1/4
f 197/1/4 198/1/4 205/1/4
f 204/4/4 197/4/4 205/4/4
f 198/4/4 158/4/4 206/4/4
f 205/1/4 198/1/4 206/1/4
f 199/4/4 200/4/4 207/4/4
f 201/4/4 202/4/4 207/4/4
f 205/4/4 206/4/4 207/4/4
f 202/4/4 203/4/4 207/4/4
f 200/4/4 201/4/4 207/4/4
f 203/4/4 204/4/4 207/4/4
f 204/4/4 205/4/4 207/4/4
f 207/4/4 206/4/4 208/4/4
f 199/4/4 207/4/4 209/4/4
f 207/1/4 208/1/4 209/1/4
f 208/4/4 206/4/4 210/4/4
f 209/1/4 208/1/4 210/1/4
f 199/4/4 209/4/4 211/4/4
f 209/4/4 210/4/4 211/4/4
f 211/4/4 210/4/4 212/4/4
f 199/4/4 211/4/4 213/4/4
f 211/3/4 212/3/4 213/3/4
f 212/4/4 210/4/4 214/4/4
f 213/3/4 212/3/4 214/3/4
f 199/4/4 213/4/4 215/4/4
f 213/4/4 214/4/4 215/4/4
f 215/4/4 214/4/4 216/4/4
f 199/4/4 215/4/4 217/4/4
f 215/1/4 216/1/4 217/1/4
f 216/4/4 214/4/4 218/4/4
f 217/1/4 216/1/4 218/1/4
f 210/4/4 206/4/4 219/4/4
f 218/4/4 214/4/4 219/4/4
f 217/4/4 218/4/4 219/4/4
f 214/4/4 210/4/4 219/4/4
f 219/4/4 206/4/4 220/4/4
f 217/4/4 219/4/4 221/4/4
f 219/3/4 220/3/4 221/3/4
f 220/4/4 206/4/4 222/4/4
f 221/3/4 220/3/4 222/3/4
f 217/4/4 221/4/4 223/4/4
f 221/4/4 222/4/4 223/4/4
f 223/4/4 222/4/4 224/4/4
f 217/4/4 223/4/4 225/4/4
f 223/1/4 224/1/4 225/1/4
f 224/4/4 222/4/4 226/4/4
f 225/1/4 224/1/4 226/1/4
f 225/4/4 226/4/4 227/4/4
f 226/4/4 222/4/4 227/4/4
f 227/4/4 222/4/4 228/4/4
f 225/4/4 227/4/4 229/4/4
f 227/1/4 228/1/4 229/1/4
f 228/4/4 222/4/4 230/4/4
f 229/1/4 228/1/4 230/1/4
f 225/4/4 229/4/4 231/4/4
f 229/4/4 230/4/4 231/4/4
f 231/4/4 230/4/4 232/4/4
f 225/4/4 231/4/4 233/4/4
f 231/1/4 232/1/4 233/1/4
f 232/4/4 230/4/4 234/4/4
f 233/1/4 232/1/4 234/1/4
f 199/4/4 217/4/4 235/4/4
f 217/4/4 225/4/4 235/4/4
f 233/4/4 234/4/4 235/4/4
f 225/4/4 233/4/4 235/4/4
f 235/4/4 234/4/4 236/4/4
f 199/4/4 235/4/4 237/4/4
f 235/2/4 236/2/4 237/2/4
f 236/4/4 234/4/4 238/4/4
f 237/2/4 236/2/4 238/2/4
f 234/4/4 230/4/4 239/4/4
f 238/4/4 234/4/4 239/4/4
f 237/4/4 238/4/4 239/4/4
f 239/4/4 230/4/4 240/4/4
f 237/4/4 239/4/4 241/4/4
f 241/4/4 239/4/4 242/4/4
f 239/2/4 240/2/4 243/2/4
f 242/4/4 239/4/4 243/4/4
f 240/4/4 230/4/4 244/4/4
f 243/2/4 240/2/4 244/2/4
f 241/1/4 242/1/4 245/1/4
f 237/4/4 241/4/4 245/4/4
f 242/4/4 243/4/4 246/4/4
f 245/1/4 242/1/4 246/1/4
f 243/4/4 244/4/4 246/4/4
f 230/4/4 222/4/4 247/4/4
f 246/4/4 244/4/4 247/4/4
f 245/4/4 246/4/4 247/4/4
f 244/4/4 230/4/4 247/4/4
f 247/4/4 222/4/4 248/4/4
f 245/4/4 247/4/4 249/4/4
f 247/1/4 248/1/4 249/1/4
f 248/4/4 222/4/4 250/4/4
f 249/1/4 248/1/4 250/1/4
f 199/4/4 237/4/4 251/4/4
f 237/4/4 245/4/4 251/4/4
f 249/4/4 250/4/4 251/4/4
f 245/4/4 249/4/4 251/4/4
f 251/4/4 250/4/4 252/4/4
f 199/4/4 251/4/4 253/4/4
f 251/1/4 252/1/4 253/1/4
f 252/4/4 250/4/4 254/4/4
f 253/1/4 252/1/4 254/1/4
f 133/4/4 199/4/4 255/4/4
f 199/4/4 253/4/4 255/4/4
f 253/4/4 254/4/4 255/4/4
f 206/4/4 158/4/4 256/4/4
f 255/4/4 254/4/4 256/4/4
f 158/4/4 134/4/4 256/4/4
f 222/4/4 206/4/4 256/4/4
f 250/4/4 222/4/4 256/4/4
f 254/4/4 250/4/4 256/4/4
f 259/4/5 258/4/5 257/4/5
f 260/4/5 258/4/5 259/4/5
f 261/4/6 262/4/6 263/4/6
f 263/4/6 262/4/6 264/4/6
